# xmcd
#
# Track frame offsets:
#	150
#	7052
#	20619
#	36745
#	55360
#	73872
#	89267
#	98797
#	114640
#	129115
#	138167
#	149000
#	158712
#	177360
#
# Disc length: 2603 seconds
#
# Revision: 0
# Processed by: cddbd v1.5PL3 Copyright (c) Steve Scherf et al.
# Submitted via: dBpowerAMP V4.0
#
DISCID=ca0a290e
DTITLE=Various Artist - 애인
DYEAR=1997
DGENRE=Blues
TTITLE0=사랑이 다가올 때
TTITLE1=San Francisco
TTITLE2=애인
TTITLE3=너의 곁에서
TTITLE4=San Francisco ( E Guitar Version)
TTITLE5=I.O.U (Roberts. Piano version)
TTITLE6=회상
TTITLE7=애인.(Cello and Violin version)
TTITLE8=San Francisco ( Jazz version )
TTITLE9=설레임
TTITLE10=혼자만의 '摸
TTITLE11=고독
TTITLE12=너의 곁에서 
TTITLE13=San Francisco ( Guitar version)
EXTD=
EXTT0=
EXTT1=
EXTT2=
EXTT3=
EXTT4=
EXTT5=
EXTT6=
EXTT7=
EXTT8=
EXTT9=
EXTT10=
EXTT11=
EXTT12=
EXTT13=
PLAYORDER=
